<?xml version="1.0" encoding="utf-8"?>
<!-- Generator: Adobe Illustrator 16.0.0, SVG Export Plug-In . SVG Version: 6.00 Build 0)  -->
<!DOCTYPE svg PUBLIC "-//W3C//DTD SVG 1.1//EN" "http://www.w3.org/Graphics/SVG/1.1/DTD/svg11.dtd">
<svg version="1.1" id="Layer_1" xmlns="http://www.w3.org/2000/svg" xmlns:xlink="http://www.w3.org/1999/xlink" x="0px" y="0px"
	 width="792px" height="792px" viewBox="0 0 792 792" enable-background="new 0 0 792 792" xml:space="preserve">
<g>
	<rect x="119.066" y="118" fill="#FFFFFF" width="69.333" height="69.334"/>
	<rect x="188.216" y="118" width="69.333" height="69.334"/>
	<rect x="257.549" y="118" fill="#FFFFFF" width="69.333" height="69.334"/>
	<rect x="326.699" y="118" width="69.334" height="69.334"/>
	<rect x="396.032" y="118" fill="#FFFFFF" width="69.334" height="69.334"/>
	<rect x="465.183" y="118" width="69.334" height="69.334"/>
	<rect x="534.517" y="118" fill="#FFFFFF" width="69.333" height="69.334"/>
	<rect x="603.666" y="118" width="69.334" height="69.334"/>
	<rect x="603.668" y="187.334" fill="#FFFFFF" width="69.332" height="69.334"/>
	<rect x="534.517" y="187.334" width="69.333" height="69.334"/>
	<rect x="465.184" y="187.334" fill="#FFFFFF" width="69.334" height="69.334"/>
	<rect x="396.033" y="187.334" width="69.334" height="69.334"/>
	<rect x="326.7" y="187.334" fill="#FFFFFF" width="69.334" height="69.334"/>
	<rect x="257.55" y="187.334" width="69.334" height="69.334"/>
	<rect x="188.217" y="187.334" fill="#FFFFFF" width="69.333" height="69.334"/>
	<rect x="119.066" y="187.334" width="69.334" height="69.334"/>
	<rect x="119.067" y="256.668" fill="#FFFFFF" width="69.333" height="69.334"/>
	<rect x="188.217" y="256.668" width="69.333" height="69.334"/>
	<rect x="257.55" y="256.668" fill="#FFFFFF" width="69.334" height="69.334"/>
	<rect x="326.7" y="256.668" width="69.334" height="69.334"/>
	<rect x="396.033" y="256.668" fill="#FFFFFF" width="69.334" height="69.334"/>
	<rect x="465.184" y="256.668" width="69.334" height="69.334"/>
	<rect x="534.518" y="256.668" fill="#FFFFFF" width="69.333" height="69.334"/>
	<rect x="603.667" y="256.668" width="69.334" height="69.334"/>
	<rect x="603.669" y="326.002" fill="#FFFFFF" width="69.332" height="69.334"/>
	<rect x="534.518" y="326.002" width="69.333" height="69.334"/>
	<rect x="465.185" y="326.002" fill="#FFFFFF" width="69.334" height="69.334"/>
	<rect x="396.034" y="326.002" width="69.334" height="69.334"/>
	<rect x="326.701" y="326.002" fill="#FFFFFF" width="69.334" height="69.334"/>
	<rect x="257.551" y="326.002" width="69.334" height="69.334"/>
	<rect x="188.218" y="326.002" fill="#FFFFFF" width="69.333" height="69.334"/>
	<rect x="119.067" y="326.002" width="69.334" height="69.334"/>
	<rect x="119.068" y="395.336" fill="#FFFFFF" width="69.333" height="69.334"/>
	<rect x="188.218" y="395.336" width="69.333" height="69.334"/>
	<rect x="257.551" y="395.336" fill="#FFFFFF" width="69.334" height="69.334"/>
	<rect x="326.701" y="395.336" width="69.334" height="69.334"/>
	<rect x="396.034" y="395.336" fill="#FFFFFF" width="69.334" height="69.334"/>
	<rect x="465.185" y="395.336" width="69.334" height="69.334"/>
	<rect x="534.519" y="395.336" fill="#FFFFFF" width="69.333" height="69.334"/>
	<rect x="603.668" y="395.336" width="69.334" height="69.334"/>
	<rect x="603.67" y="464.67" fill="#FFFFFF" width="69.332" height="69.334"/>
	<rect x="534.519" y="464.67" width="69.333" height="69.334"/>
	<rect x="465.186" y="464.67" fill="#FFFFFF" width="69.334" height="69.334"/>
	<rect x="396.035" y="464.67" width="69.334" height="69.334"/>
	<rect x="326.702" y="464.67" fill="#FFFFFF" width="69.334" height="69.334"/>
	<rect x="257.552" y="464.67" width="69.334" height="69.334"/>
	<rect x="188.219" y="464.67" fill="#FFFFFF" width="69.333" height="69.334"/>
	<rect x="119.068" y="464.67" width="69.334" height="69.334"/>
	<rect x="119.066" y="534.004" fill="#FFFFFF" width="69.333" height="69.334"/>
	<rect x="188.217" y="534.004" width="69.333" height="69.334"/>
	<rect x="257.549" y="534.004" fill="#FFFFFF" width="69.333" height="69.334"/>
	<rect x="326.699" y="534.004" width="69.334" height="69.334"/>
	<rect x="396.033" y="534.004" fill="#FFFFFF" width="69.334" height="69.334"/>
	<rect x="465.184" y="534.004" width="69.334" height="69.334"/>
	<rect x="534.518" y="534.004" fill="#FFFFFF" width="69.332" height="69.334"/>
	<rect x="603.666" y="534.004" width="69.334" height="69.334"/>
	<rect x="603.668" y="603.338" fill="#FFFFFF" width="69.332" height="69.334"/>
	<rect x="534.518" y="603.338" width="69.332" height="69.334"/>
	<rect x="465.184" y="603.338" fill="#FFFFFF" width="69.334" height="69.334"/>
	<rect x="396.033" y="603.338" width="69.334" height="69.334"/>
	<rect x="326.701" y="603.338" fill="#FFFFFF" width="69.334" height="69.334"/>
	<rect x="257.55" y="603.338" width="69.334" height="69.334"/>
	<rect x="188.217" y="603.338" fill="#FFFFFF" width="69.333" height="69.334"/>
	<rect x="119.067" y="603.338" width="69.334" height="69.334"/>
	<g>
		<path fill="#414042" d="M673,118v554.672H119.066V118H673 M680,111h-7H119.066h-7v7v554.672v7h7H673h7v-7V118V111L680,111z"/>
	</g>
</g>
<g>
	<circle fill="#B31217" stroke="#EE3535" stroke-width="3" stroke-miterlimit="10" cx="153.732" cy="638.005" r="25.167"/>
	<circle fill="#B31217" stroke="#EE3535" stroke-width="3" stroke-miterlimit="10" cx="292.219" cy="638.005" r="25.167"/>
	<circle fill="#B31217" stroke="#EE3535" stroke-width="3" stroke-miterlimit="10" cx="430.702" cy="638.005" r="25.167"/>
	<circle fill="#B31217" stroke="#EE3535" stroke-width="3" stroke-miterlimit="10" cx="569.186" cy="638.005" r="25.167"/>
	<circle fill="#B31217" stroke="#EE3535" stroke-width="3" stroke-miterlimit="10" cx="222.973" cy="568.671" r="25.167"/>
	<circle fill="#B31217" stroke="#EE3535" stroke-width="3" stroke-miterlimit="10" cx="361.46" cy="568.671" r="25.167"/>
	<circle fill="#B31217" stroke="#EE3535" stroke-width="3" stroke-miterlimit="10" cx="499.942" cy="568.671" r="25.167"/>
	<circle fill="#B31217" stroke="#EE3535" stroke-width="3" stroke-miterlimit="10" cx="638.427" cy="568.671" r="25.167"/>
	<circle fill="#B31217" stroke="#EE3535" stroke-width="3" stroke-miterlimit="10" cx="153.64" cy="499.337" r="25.167"/>
	<circle fill="#B31217" stroke="#EE3535" stroke-width="3" stroke-miterlimit="10" cx="292.126" cy="499.337" r="25.167"/>
	<circle fill="#B31217" stroke="#EE3535" stroke-width="3" stroke-miterlimit="10" cx="430.61" cy="499.337" r="25.167"/>
	<circle fill="#B31217" stroke="#EE3535" stroke-width="3" stroke-miterlimit="10" cx="569.093" cy="499.337" r="25.167"/>
</g>
<g>
	<circle stroke="#58595B" stroke-width="3" stroke-miterlimit="10" cx="638.337" cy="152.667" r="25.167"/>
	<circle stroke="#58595B" stroke-width="3" stroke-miterlimit="10" cx="499.851" cy="152.667" r="25.167"/>
	<circle stroke="#58595B" stroke-width="3" stroke-miterlimit="10" cx="361.368" cy="152.667" r="25.167"/>
	<circle stroke="#58595B" stroke-width="3" stroke-miterlimit="10" cx="222.884" cy="152.667" r="25.167"/>
	<circle stroke="#58595B" stroke-width="3" stroke-miterlimit="10" cx="569.097" cy="222.001" r="25.167"/>
	<circle stroke="#58595B" stroke-width="3" stroke-miterlimit="10" cx="430.61" cy="222.001" r="25.167"/>
	<circle stroke="#58595B" stroke-width="3" stroke-miterlimit="10" cx="292.128" cy="222.001" r="25.167"/>
	<circle stroke="#58595B" stroke-width="3" stroke-miterlimit="10" cx="153.643" cy="222.001" r="25.167"/>
	<circle stroke="#58595B" stroke-width="3" stroke-miterlimit="10" cx="638.429" cy="291.335" r="25.167"/>
	<circle stroke="#58595B" stroke-width="3" stroke-miterlimit="10" cx="499.944" cy="291.335" r="25.167"/>
	<circle stroke="#58595B" stroke-width="3" stroke-miterlimit="10" cx="361.46" cy="291.335" r="25.167"/>
	<circle stroke="#58595B" stroke-width="3" stroke-miterlimit="10" cx="222.977" cy="291.335" r="25.167"/>
</g>
</svg>
