<?xml version="1.0" encoding="UTF-8" standalone="no"?>
<!DOCTYPE svg PUBLIC "-//W3C//DTD SVG 1.1//EN" "http://www.w3.org/Graphics/SVG/1.1/DTD/svg11.dtd">
<svg width="100%" height="100%" viewBox="0 0 223 223" version="1.1" xmlns="http://www.w3.org/2000/svg" xmlns:xlink="http://www.w3.org/1999/xlink" xml:space="preserve" xmlns:serif="http://www.serif.com/" style="fill-rule:evenodd;clip-rule:evenodd;stroke-linejoin:round;stroke-miterlimit:2;">
    <g transform="matrix(1,0,0,1,-2615.67,-852.783)">
        <g transform="matrix(0,4.16667,4.16667,0,2726.79,859.033)">
            <path d="M25.167,-25.167C11.268,-25.167 0,-13.899 0,0.001C0,13.899 11.268,25.167 25.167,25.167C39.066,25.167 50.334,13.899 50.334,0.001C50.334,-13.899 39.066,-25.167 25.167,-25.167" style="fill:rgb(35,31,32);fill-rule:nonzero;"/>
        </g>
        <g transform="matrix(0,4.16667,4.16667,0,2726.79,859.033)">
            <path d="M25.167,-26.667C39.885,-26.667 51.834,-14.718 51.834,0C51.834,14.718 39.885,26.667 25.167,26.667C10.449,26.667 -1.5,14.718 -1.5,0C-1.5,-14.718 10.449,-26.667 25.167,-26.667ZM25.167,-23.667C12.105,-23.667 1.5,-13.062 1.5,0C1.5,13.062 12.105,23.667 25.167,23.667C38.229,23.667 48.834,13.062 48.834,0C48.834,-13.062 38.229,-23.667 25.167,-23.667Z" style="fill:rgb(88,89,91);"/>
        </g>
    </g>
</svg>
