<?xml version="1.0" encoding="utf-8"?>
<!-- Generator: Adobe Illustrator 16.0.0, SVG Export Plug-In . SVG Version: 6.00 Build 0)  -->
<!DOCTYPE svg PUBLIC "-//W3C//DTD SVG 1.1//EN" "http://www.w3.org/Graphics/SVG/1.1/DTD/svg11.dtd">
<svg version="1.1" xmlns="http://www.w3.org/2000/svg" xmlns:xlink="http://www.w3.org/1999/xlink" x="0px" y="0px"
	 width="53.334px" height="53.334px" viewBox="0 0 53.334 53.334" enable-background="new 0 0 53.334 53.334" xml:space="preserve">
<g id="Layer_1" display="none">
	<g display="inline">
		<circle cx="26.667" cy="26.667" r="25.167"/>
		<path fill="#58595B" d="M26.666,53.334C11.962,53.334,0,41.371,0,26.667S11.962,0,26.666,0c14.705,0,26.668,11.963,26.668,26.667
			S41.371,53.334,26.666,53.334z M26.666,3C13.616,3,3,13.617,3,26.667s10.616,23.667,23.666,23.667
			c13.051,0,23.668-10.617,23.668-23.667S39.717,3,26.666,3z"/>
	</g>
</g>
<g id="Layer_2">
	<g>
		<circle fill="#B31217" cx="26.667" cy="26.667" r="25.167"/>
		<path fill="#EE3535" d="M26.668,53.334c-14.704,0-26.667-11.963-26.667-26.667S11.964,0,26.668,0s26.666,11.963,26.666,26.667
			S41.372,53.334,26.668,53.334z M26.668,3C13.618,3,3.001,13.617,3.001,26.667s10.617,23.667,23.667,23.667
			s23.666-10.617,23.666-23.667S39.718,3,26.668,3z"/>
	</g>
</g>
</svg>
