<?xml version="1.0" encoding="UTF-8" standalone="no"?>
<!DOCTYPE svg PUBLIC "-//W3C//DTD SVG 1.1//EN" "http://www.w3.org/Graphics/SVG/1.1/DTD/svg11.dtd">
<svg width="100%" height="100%" viewBox="0 0 223 223" version="1.1" xmlns="http://www.w3.org/2000/svg" xmlns:xlink="http://www.w3.org/1999/xlink" xml:space="preserve" xmlns:serif="http://www.serif.com/" style="fill-rule:evenodd;clip-rule:evenodd;stroke-linejoin:round;stroke-miterlimit:2;">
    <g transform="matrix(1,0,0,1,-3462.1,-2693.67)">
        <g transform="matrix(0,4.16667,4.16667,0,3573.21,2699.92)">
            <path d="M25.167,-25.167C11.268,-25.167 0,-13.899 0,0.001C0,13.899 11.268,25.167 25.167,25.167C39.066,25.167 50.334,13.899 50.334,0.001C50.334,-13.899 39.066,-25.167 25.167,-25.167" style="fill:rgb(35,31,32);fill-rule:nonzero;"/>
        </g>
        <g transform="matrix(0,4.16667,4.16667,0,3573.21,2699.92)">
            <path d="M25.167,-26.667C39.885,-26.667 51.834,-14.718 51.834,0C51.834,14.718 39.885,26.667 25.167,26.667C10.449,26.667 -1.5,14.718 -1.5,0C-1.5,-14.718 10.449,-26.667 25.167,-26.667ZM25.167,-23.667C12.105,-23.667 1.5,-13.062 1.5,0C1.5,13.062 12.105,23.667 25.167,23.667C38.229,23.667 48.834,13.062 48.834,0C48.834,-13.062 38.229,-23.667 25.167,-23.667Z" style="fill:rgb(88,89,91);"/>
        </g>
        <g transform="matrix(0.242593,0,0,0.242593,1288.65,2185.64)">
            <path d="M9417.31,2408.35L9490.05,2564.71L9586.64,2408.35L9619.43,2564.71L9751.51,2408.35L9671.8,2613.21L9658.22,2682.07C9658.22,2682.07 9658.22,2682.07 9658.22,2682.07C9498.15,2700.63 9336.47,2700.63 9176.4,2682.07C9176.4,2682.07 9176.4,2682.07 9176.4,2682.07L9162.82,2613.21L9083.11,2408.35L9215.19,2564.71L9247.97,2408.35L9344.57,2564.71L9417.31,2408.35Z" style="fill:rgb(120,120,120);"/>
        </g>
        <g transform="matrix(0.242593,0,0,0.242593,1288.65,2185.64)">
            <path d="M9490.3,2560.38L9584.89,2407.27C9585.33,2406.55 9586.17,2406.18 9587,2406.32C9587.83,2406.47 9588.49,2407.11 9588.66,2407.93L9620.58,2560.16L9749.93,2407.02C9750.58,2406.25 9751.69,2406.07 9752.56,2406.58C9753.43,2407.1 9753.8,2408.16 9753.43,2409.1L9673.78,2613.78L9660.24,2682.47L9658.27,2682.47L9658.46,2684.11C9498.23,2702.69 9336.39,2702.69 9176.16,2684.11L9176.4,2682.07L9174.37,2682.47L9160.83,2613.78L9081.19,2409.1C9080.82,2408.16 9081.19,2407.1 9082.06,2406.58C9082.92,2406.07 9084.03,2406.25 9084.68,2407.02L9214.04,2560.16L9245.95,2407.93C9246.13,2407.11 9246.78,2406.47 9247.62,2406.32C9248.45,2406.18 9249.28,2406.55 9249.73,2407.27L9344.31,2560.38L9415.44,2407.48L9417.31,2408.35C9417.31,2408.35 9419.18,2407.48 9419.18,2407.48L9490.3,2560.38ZM9417.31,2413.24L9346.44,2565.58C9346.12,2566.27 9345.45,2566.73 9344.69,2566.77C9343.93,2566.82 9343.21,2566.44 9342.82,2565.8L9248.93,2413.83L9217.21,2565.14C9217.05,2565.91 9216.46,2566.52 9215.69,2566.71C9214.93,2566.91 9214.12,2566.65 9213.62,2566.04L9089.51,2419.13L9164.74,2612.46C9164.78,2612.57 9164.82,2612.69 9164.84,2612.81L9178.13,2680.19C9337.06,2698.5 9497.57,2698.5 9656.49,2680.19L9669.77,2612.81C9669.8,2612.69 9669.83,2612.57 9669.88,2612.46L9745.1,2419.13L9621,2566.04C9620.49,2566.65 9619.68,2566.91 9618.92,2566.71C9618.16,2566.52 9617.57,2565.91 9617.41,2565.14L9585.69,2413.83L9491.8,2565.8C9491.4,2566.44 9490.68,2566.82 9489.93,2566.77C9489.17,2566.73 9488.5,2566.27 9488.18,2565.58L9417.31,2413.24Z" style="fill:none;"/>
        </g>
    </g>
</svg>
